<svg width="124" height="73" viewBox="0 0 124 73" fill="none" xmlns="http://www.w3.org/2000/svg">
<rect x="0.5" y="1.46582" width="123" height="71" rx="4.5" stroke="#9747FF" stroke-dasharray="10 5"/>
<path d="M30.437 35.6325H45.333C46.0694 35.6325 46.6663 36.2295 46.6663 36.9659C46.6663 37.7023 46.0694 38.2992 45.333 38.2992H30.437L36.6463 44.5085C37.167 45.0292 37.167 45.8733 36.6463 46.3939C36.1257 46.9145 35.2816 46.9145 34.761 46.3939L26.7472 38.3801C25.9662 37.599 25.9662 36.3327 26.7472 35.5517L34.761 27.5379C35.2816 27.0173 36.1257 27.0173 36.6463 27.5379C37.167 28.0585 37.167 28.9026 36.6463 29.4232L30.437 35.6325Z" fill="#29ABE2"/>
<rect x="72" y="20.9658" width="32" height="32" rx="16" fill="#EEEEEE"/>
<path d="M80.7075 35.6325H98.1981C98.9345 35.6325 99.5314 36.2295 99.5314 36.9659C99.5314 37.7023 98.9345 38.2992 98.1981 38.2992H80.7075L86.9169 44.5085C87.4375 45.0292 87.4375 45.8733 86.9168 46.3939C86.3962 46.9145 85.5521 46.9145 85.0315 46.3939L77.0177 38.3801C76.2367 37.599 76.2367 36.3327 77.0177 35.5517L85.0315 27.5379C85.5521 27.0173 86.3962 27.0173 86.9168 27.5379C87.4375 28.0585 87.4375 28.9026 86.9168 29.4232L80.7075 35.6325Z" fill="#29ABE2"/>
</svg>
