<svg width="124" height="108" viewBox="0 0 124 108" fill="none" xmlns="http://www.w3.org/2000/svg">
<rect x="1" y="0.5" width="122" height="107" rx="4.5" stroke="#9747FF" stroke-dasharray="10 5"/>
<mask id="mask0_71348_10258" style="mask-type:alpha" maskUnits="userSpaceOnUse" x="20" y="20" width="25" height="24">
<rect x="20.5" y="20" width="24" height="24" fill="#D9D9D9"/>
</mask>
<g mask="url(#mask0_71348_10258)">
<path d="M27.5 41C26.95 41 26.4792 40.8042 26.0875 40.4125C25.6958 40.0208 25.5 39.55 25.5 39V26C25.2167 26 24.9792 25.9042 24.7875 25.7125C24.5958 25.5208 24.5 25.2833 24.5 25C24.5 24.7167 24.5958 24.4792 24.7875 24.2875C24.9792 24.0958 25.2167 24 25.5 24H29.5C29.5 23.7167 29.5958 23.4792 29.7875 23.2875C29.9792 23.0958 30.2167 23 30.5 23H34.5C34.7833 23 35.0208 23.0958 35.2125 23.2875C35.4042 23.4792 35.5 23.7167 35.5 24H39.5C39.7833 24 40.0208 24.0958 40.2125 24.2875C40.4042 24.4792 40.5 24.7167 40.5 25C40.5 25.2833 40.4042 25.5208 40.2125 25.7125C40.0208 25.9042 39.7833 26 39.5 26V39C39.5 39.55 39.3042 40.0208 38.9125 40.4125C38.5208 40.8042 38.05 41 37.5 41H27.5ZM27.5 26V39H37.5V26H27.5ZM29.5 36C29.5 36.2833 29.5958 36.5208 29.7875 36.7125C29.9792 36.9042 30.2167 37 30.5 37C30.7833 37 31.0208 36.9042 31.2125 36.7125C31.4042 36.5208 31.5 36.2833 31.5 36V29C31.5 28.7167 31.4042 28.4792 31.2125 28.2875C31.0208 28.0958 30.7833 28 30.5 28C30.2167 28 29.9792 28.0958 29.7875 28.2875C29.5958 28.4792 29.5 28.7167 29.5 29V36ZM33.5 36C33.5 36.2833 33.5958 36.5208 33.7875 36.7125C33.9792 36.9042 34.2167 37 34.5 37C34.7833 37 35.0208 36.9042 35.2125 36.7125C35.4042 36.5208 35.5 36.2833 35.5 36V29C35.5 28.7167 35.4042 28.4792 35.2125 28.2875C35.0208 28.0958 34.7833 28 34.5 28C34.2167 28 33.9792 28.0958 33.7875 28.2875C33.5958 28.4792 33.5 28.7167 33.5 29V36Z" fill="#2A3647"/>
</g>
<path d="M57.5 37.5H53.9091V25.8636H57.6591C58.7879 25.8636 59.7538 26.0966 60.5568 26.5625C61.3598 27.0246 61.9754 27.6894 62.4034 28.5568C62.8314 29.4205 63.0455 30.4545 63.0455 31.6591C63.0455 32.8712 62.8295 33.9148 62.3977 34.7898C61.9659 35.661 61.3371 36.3314 60.5114 36.8011C59.6856 37.267 58.6818 37.5 57.5 37.5ZM55.3182 36.25H57.4091C58.3712 36.25 59.1686 36.0644 59.8011 35.6932C60.4337 35.322 60.9053 34.7936 61.2159 34.108C61.5265 33.4223 61.6818 32.6061 61.6818 31.6591C61.6818 30.7197 61.5284 29.911 61.2216 29.233C60.9148 28.5511 60.4564 28.0284 59.8466 27.6648C59.2367 27.2973 58.4773 27.1136 57.5682 27.1136H55.3182V36.25ZM68.8864 37.6818C68.0455 37.6818 67.3201 37.4962 66.7102 37.125C66.1042 36.75 65.6364 36.2273 65.3068 35.5568C64.9811 34.8826 64.8182 34.0985 64.8182 33.2045C64.8182 32.3106 64.9811 31.5227 65.3068 30.8409C65.6364 30.1553 66.0947 29.6212 66.6818 29.2386C67.2727 28.8523 67.9621 28.6591 68.75 28.6591C69.2045 28.6591 69.6534 28.7348 70.0966 28.8864C70.5398 29.0379 70.9432 29.2841 71.3068 29.625C71.6705 29.9621 71.9602 30.4091 72.1761 30.9659C72.392 31.5227 72.5 32.2083 72.5 33.0227V33.5909H65.7727V32.4318H71.1364C71.1364 31.9394 71.0379 31.5 70.8409 31.1136C70.6477 30.7273 70.3712 30.4223 70.0114 30.1989C69.6553 29.9754 69.2348 29.8636 68.75 29.8636C68.2159 29.8636 67.7538 29.9962 67.3636 30.2614C66.9773 30.5227 66.6799 30.8636 66.4716 31.2841C66.2633 31.7045 66.1591 32.1553 66.1591 32.6364V33.4091C66.1591 34.0682 66.2727 34.6269 66.5 35.0852C66.7311 35.5398 67.0511 35.8864 67.4602 36.125C67.8693 36.3598 68.3447 36.4773 68.8864 36.4773C69.2386 36.4773 69.5568 36.428 69.8409 36.3295C70.1288 36.2273 70.3769 36.0758 70.5852 35.875C70.7936 35.6705 70.9545 35.4167 71.0682 35.1136L72.3636 35.4773C72.2273 35.9167 71.9981 36.303 71.6761 36.6364C71.3542 36.9659 70.9564 37.2235 70.483 37.4091C70.0095 37.5909 69.4773 37.6818 68.8864 37.6818ZM75.8807 25.8636V37.5H74.5398V25.8636H75.8807ZM81.9957 37.6818C81.1548 37.6818 80.4295 37.4962 79.8196 37.125C79.2135 36.75 78.7457 36.2273 78.4162 35.5568C78.0904 34.8826 77.9276 34.0985 77.9276 33.2045C77.9276 32.3106 78.0904 31.5227 78.4162 30.8409C78.7457 30.1553 79.2041 29.6212 79.7912 29.2386C80.3821 28.8523 81.0715 28.6591 81.8594 28.6591C82.3139 28.6591 82.7628 28.7348 83.206 28.8864C83.6491 29.0379 84.0526 29.2841 84.4162 29.625C84.7798 29.9621 85.0696 30.4091 85.2855 30.9659C85.5014 31.5227 85.6094 32.2083 85.6094 33.0227V33.5909H78.8821V32.4318H84.2457C84.2457 31.9394 84.1473 31.5 83.9503 31.1136C83.7571 30.7273 83.4806 30.4223 83.1207 30.1989C82.7647 29.9754 82.3442 29.8636 81.8594 29.8636C81.3253 29.8636 80.8632 29.9962 80.473 30.2614C80.0866 30.5227 79.7893 30.8636 79.581 31.2841C79.3726 31.7045 79.2685 32.1553 79.2685 32.6364V33.4091C79.2685 34.0682 79.3821 34.6269 79.6094 35.0852C79.8404 35.5398 80.1605 35.8864 80.5696 36.125C80.9787 36.3598 81.4541 36.4773 81.9957 36.4773C82.348 36.4773 82.6662 36.428 82.9503 36.3295C83.2382 36.2273 83.4863 36.0758 83.6946 35.875C83.9029 35.6705 84.0639 35.4167 84.1776 35.1136L85.473 35.4773C85.3366 35.9167 85.1075 36.303 84.7855 36.6364C84.4635 36.9659 84.0658 37.2235 83.5923 37.4091C83.1188 37.5909 82.5866 37.6818 81.9957 37.6818ZM91.4446 28.7727V29.9091H86.9219V28.7727H91.4446ZM88.2401 26.6818H89.581V35C89.581 35.3788 89.6359 35.6629 89.7457 35.8523C89.8594 36.0379 90.0033 36.1629 90.1776 36.2273C90.3556 36.2879 90.5431 36.3182 90.7401 36.3182C90.8878 36.3182 91.009 36.3106 91.1037 36.2955C91.1984 36.2765 91.2741 36.2614 91.331 36.25L91.6037 37.4545C91.5128 37.4886 91.3859 37.5227 91.223 37.5568C91.0601 37.5947 90.8537 37.6136 90.6037 37.6136C90.2249 37.6136 89.8537 37.5322 89.4901 37.3693C89.1302 37.2064 88.831 36.9583 88.5923 36.625C88.3575 36.2917 88.2401 35.8712 88.2401 35.3636V26.6818ZM97.027 37.6818C96.1861 37.6818 95.4607 37.4962 94.8509 37.125C94.2448 36.75 93.777 36.2273 93.4474 35.5568C93.1217 34.8826 92.9588 34.0985 92.9588 33.2045C92.9588 32.3106 93.1217 31.5227 93.4474 30.8409C93.777 30.1553 94.2353 29.6212 94.8224 29.2386C95.4134 28.8523 96.1027 28.6591 96.8906 28.6591C97.3452 28.6591 97.794 28.7348 98.2372 28.8864C98.6804 29.0379 99.0838 29.2841 99.4474 29.625C99.8111 29.9621 100.101 30.4091 100.317 30.9659C100.533 31.5227 100.641 32.2083 100.641 33.0227V33.5909H93.9134V32.4318H99.277C99.277 31.9394 99.1785 31.5 98.9815 31.1136C98.7884 30.7273 98.5118 30.4223 98.152 30.1989C97.7959 29.9754 97.3755 29.8636 96.8906 29.8636C96.3565 29.8636 95.8944 29.9962 95.5043 30.2614C95.1179 30.5227 94.8205 30.8636 94.6122 31.2841C94.4039 31.7045 94.2997 32.1553 94.2997 32.6364V33.4091C94.2997 34.0682 94.4134 34.6269 94.6406 35.0852C94.8717 35.5398 95.1918 35.8864 95.6009 36.125C96.0099 36.3598 96.4853 36.4773 97.027 36.4773C97.3793 36.4773 97.6974 36.428 97.9815 36.3295C98.2694 36.2273 98.5175 36.0758 98.7259 35.875C98.9342 35.6705 99.0952 35.4167 99.2088 35.1136L100.504 35.4773C100.368 35.9167 100.139 36.303 99.8168 36.6364C99.4948 36.9659 99.0971 37.2235 98.6236 37.4091C98.1501 37.5909 97.6179 37.6818 97.027 37.6818Z" fill="#2A3647"/>
<mask id="mask1_71348_10258" style="mask-type:alpha" maskUnits="userSpaceOnUse" x="20" y="64" width="25" height="24">
<rect x="20.5" y="64" width="24" height="24" fill="#D9D9D9"/>
</mask>
<g mask="url(#mask1_71348_10258)">
<path d="M27.5 85C26.95 85 26.4792 84.8042 26.0875 84.4125C25.6958 84.0208 25.5 83.55 25.5 83V70C25.2167 70 24.9792 69.9042 24.7875 69.7125C24.5958 69.5208 24.5 69.2833 24.5 69C24.5 68.7167 24.5958 68.4792 24.7875 68.2875C24.9792 68.0958 25.2167 68 25.5 68H29.5C29.5 67.7167 29.5958 67.4792 29.7875 67.2875C29.9792 67.0958 30.2167 67 30.5 67H34.5C34.7833 67 35.0208 67.0958 35.2125 67.2875C35.4042 67.4792 35.5 67.7167 35.5 68H39.5C39.7833 68 40.0208 68.0958 40.2125 68.2875C40.4042 68.4792 40.5 68.7167 40.5 69C40.5 69.2833 40.4042 69.5208 40.2125 69.7125C40.0208 69.9042 39.7833 70 39.5 70V83C39.5 83.55 39.3042 84.0208 38.9125 84.4125C38.5208 84.8042 38.05 85 37.5 85H27.5ZM27.5 70V83H37.5V70H27.5ZM29.5 80C29.5 80.2833 29.5958 80.5208 29.7875 80.7125C29.9792 80.9042 30.2167 81 30.5 81C30.7833 81 31.0208 80.9042 31.2125 80.7125C31.4042 80.5208 31.5 80.2833 31.5 80V73C31.5 72.7167 31.4042 72.4792 31.2125 72.2875C31.0208 72.0958 30.7833 72 30.5 72C30.2167 72 29.9792 72.0958 29.7875 72.2875C29.5958 72.4792 29.5 72.7167 29.5 73V80ZM33.5 80C33.5 80.2833 33.5958 80.5208 33.7875 80.7125C33.9792 80.9042 34.2167 81 34.5 81C34.7833 81 35.0208 80.9042 35.2125 80.7125C35.4042 80.5208 35.5 80.2833 35.5 80V73C35.5 72.7167 35.4042 72.4792 35.2125 72.2875C35.0208 72.0958 34.7833 72 34.5 72C34.2167 72 33.9792 72.0958 33.7875 72.2875C33.5958 72.4792 33.5 72.7167 33.5 73V80Z" fill="#29ABE2"/>
</g>
<path d="M57.6364 81.5H53.5114V69.8636H57.6705C58.8409 69.8636 59.8485 70.0966 60.6932 70.5625C61.5379 71.0246 62.1875 71.6894 62.642 72.5568C63.1004 73.4242 63.3295 74.4621 63.3295 75.6705C63.3295 76.8826 63.1004 77.9242 62.642 78.7955C62.1875 79.6667 61.5341 80.3352 60.6818 80.8011C59.8333 81.267 58.8182 81.5 57.6364 81.5ZM55.9716 79.392H57.5341C58.2614 79.392 58.8731 79.2633 59.3693 79.0057C59.8693 78.7443 60.2443 78.3409 60.4943 77.7955C60.7481 77.2462 60.875 76.5379 60.875 75.6705C60.875 74.8106 60.7481 74.108 60.4943 73.5625C60.2443 73.017 59.8712 72.6155 59.375 72.358C58.8788 72.1004 58.267 71.9716 57.5398 71.9716H55.9716V79.392ZM69.0838 81.6705C68.1861 81.6705 67.4134 81.4886 66.7656 81.125C66.1217 80.7576 65.6255 80.2386 65.277 79.5682C64.9285 78.8939 64.7543 78.0966 64.7543 77.1761C64.7543 76.2784 64.9285 75.4905 65.277 74.8125C65.6255 74.1345 66.116 73.6061 66.7486 73.2273C67.3849 72.8485 68.1312 72.6591 68.9872 72.6591C69.563 72.6591 70.099 72.7519 70.5952 72.9375C71.0952 73.1193 71.5308 73.3939 71.902 73.7614C72.277 74.1288 72.5687 74.5909 72.777 75.1477C72.9853 75.7008 73.0895 76.3485 73.0895 77.0909V77.7557H65.7202V76.2557H70.8111C70.8111 75.9072 70.7353 75.5985 70.5838 75.3295C70.4323 75.0606 70.2221 74.8504 69.9531 74.6989C69.688 74.5436 69.3793 74.4659 69.027 74.4659C68.6596 74.4659 68.3338 74.5511 68.0497 74.7216C67.7694 74.8883 67.5497 75.1136 67.3906 75.3977C67.2315 75.678 67.1501 75.9905 67.1463 76.3352V77.7614C67.1463 78.1932 67.2259 78.5663 67.3849 78.8807C67.5478 79.1951 67.777 79.4375 68.0724 79.608C68.3679 79.7784 68.7183 79.8636 69.1236 79.8636C69.3925 79.8636 69.6387 79.8258 69.8622 79.75C70.0857 79.6742 70.277 79.5606 70.4361 79.4091C70.5952 79.2576 70.7164 79.072 70.7997 78.8523L73.0384 79C72.9247 79.5379 72.6918 80.0076 72.3395 80.4091C71.991 80.8068 71.5402 81.1174 70.9872 81.3409C70.438 81.5606 69.8035 81.6705 69.0838 81.6705ZM77.0895 69.8636V81.5H74.669V69.8636H77.0895ZM83.0057 81.6705C82.108 81.6705 81.3352 81.4886 80.6875 81.125C80.0436 80.7576 79.5473 80.2386 79.1989 79.5682C78.8504 78.8939 78.6761 78.0966 78.6761 77.1761C78.6761 76.2784 78.8504 75.4905 79.1989 74.8125C79.5473 74.1345 80.0379 73.6061 80.6705 73.2273C81.3068 72.8485 82.053 72.6591 82.9091 72.6591C83.4848 72.6591 84.0208 72.7519 84.517 72.9375C85.017 73.1193 85.4527 73.3939 85.8239 73.7614C86.1989 74.1288 86.4905 74.5909 86.6989 75.1477C86.9072 75.7008 87.0114 76.3485 87.0114 77.0909V77.7557H79.642V76.2557H84.733C84.733 75.9072 84.6572 75.5985 84.5057 75.3295C84.3542 75.0606 84.1439 74.8504 83.875 74.6989C83.6098 74.5436 83.3011 74.4659 82.9489 74.4659C82.5814 74.4659 82.2557 74.5511 81.9716 74.7216C81.6913 74.8883 81.4716 75.1136 81.3125 75.3977C81.1534 75.678 81.072 75.9905 81.0682 76.3352V77.7614C81.0682 78.1932 81.1477 78.5663 81.3068 78.8807C81.4697 79.1951 81.6989 79.4375 81.9943 79.608C82.2898 79.7784 82.6402 79.8636 83.0455 79.8636C83.3144 79.8636 83.5606 79.8258 83.7841 79.75C84.0076 79.6742 84.1989 79.5606 84.358 79.4091C84.517 79.2576 84.6383 79.072 84.7216 78.8523L86.9602 79C86.8466 79.5379 86.6136 80.0076 86.2614 80.4091C85.9129 80.8068 85.4621 81.1174 84.9091 81.3409C84.3598 81.5606 83.7254 81.6705 83.0057 81.6705ZM93.233 72.7727V74.5909H87.9773V72.7727H93.233ZM89.1705 70.6818H91.5909V78.8182C91.5909 79.0417 91.625 79.2159 91.6932 79.3409C91.7614 79.4621 91.8561 79.5473 91.9773 79.5966C92.1023 79.6458 92.2462 79.6705 92.4091 79.6705C92.5227 79.6705 92.6364 79.661 92.75 79.642C92.8636 79.6193 92.9508 79.6023 93.0114 79.5909L93.392 81.392C93.2708 81.4299 93.1004 81.4735 92.8807 81.5227C92.661 81.5758 92.3939 81.608 92.0795 81.6193C91.4962 81.642 90.9848 81.5644 90.5455 81.3864C90.1098 81.2083 89.7708 80.9318 89.5284 80.5568C89.286 80.1818 89.1667 79.7083 89.1705 79.1364V70.6818ZM98.6932 81.6705C97.7955 81.6705 97.0227 81.4886 96.375 81.125C95.7311 80.7576 95.2348 80.2386 94.8864 79.5682C94.5379 78.8939 94.3636 78.0966 94.3636 77.1761C94.3636 76.2784 94.5379 75.4905 94.8864 74.8125C95.2348 74.1345 95.7254 73.6061 96.358 73.2273C96.9943 72.8485 97.7405 72.6591 98.5966 72.6591C99.1723 72.6591 99.7083 72.7519 100.205 72.9375C100.705 73.1193 101.14 73.3939 101.511 73.7614C101.886 74.1288 102.178 74.5909 102.386 75.1477C102.595 75.7008 102.699 76.3485 102.699 77.0909V77.7557H95.3295V76.2557H100.42C100.42 75.9072 100.345 75.5985 100.193 75.3295C100.042 75.0606 99.8314 74.8504 99.5625 74.6989C99.2973 74.5436 98.9886 74.4659 98.6364 74.4659C98.2689 74.4659 97.9432 74.5511 97.6591 74.7216C97.3788 74.8883 97.1591 75.1136 97 75.3977C96.8409 75.678 96.7595 75.9905 96.7557 76.3352V77.7614C96.7557 78.1932 96.8352 78.5663 96.9943 78.8807C97.1572 79.1951 97.3864 79.4375 97.6818 79.608C97.9773 79.7784 98.3277 79.8636 98.733 79.8636C99.0019 79.8636 99.2481 79.8258 99.4716 79.75C99.6951 79.6742 99.8864 79.5606 100.045 79.4091C100.205 79.2576 100.326 79.072 100.409 78.8523L102.648 79C102.534 79.5379 102.301 80.0076 101.949 80.4091C101.6 80.8068 101.15 81.1174 100.597 81.3409C100.047 81.5606 99.4129 81.6705 98.6932 81.6705Z" fill="#29ABE2"/>
</svg>
