<svg width="104" height="108" viewBox="0 0 104 108" fill="none" xmlns="http://www.w3.org/2000/svg">
<rect x="1" y="0.5" width="102" height="107" rx="4.5" stroke="#9747FF" stroke-dasharray="10 5"/>
<mask id="mask0_48008_4080" style="mask-type:alpha" maskUnits="userSpaceOnUse" x="20" y="20" width="25" height="24">
<rect x="20.5" y="20" width="24" height="24" fill="#D9D9D9"/>
</mask>
<g mask="url(#mask0_48008_4080)">
<path d="M25.5 39H26.9L35.525 30.375L34.125 28.975L25.5 37.6V39ZM39.8 28.925L35.55 24.725L36.95 23.325C37.3333 22.9417 37.8042 22.75 38.3625 22.75C38.9208 22.75 39.3917 22.9417 39.775 23.325L41.175 24.725C41.5583 25.1083 41.7583 25.5708 41.775 26.1125C41.7917 26.6542 41.6083 27.1167 41.225 27.5L39.8 28.925ZM38.35 30.4L27.75 41H23.5V36.75L34.1 26.15L38.35 30.4Z" fill="#2A3647"/>
</g>
<path d="M53.9091 37.5V25.8636H60.9318V27.1136H55.3182V31.0455H60.5682V32.2955H55.3182V36.25H61.0227V37.5H53.9091ZM66.5852 37.6818C65.858 37.6818 65.2159 37.4981 64.6591 37.1307C64.1023 36.7595 63.6667 36.2367 63.3523 35.5625C63.0379 34.8845 62.8807 34.0833 62.8807 33.1591C62.8807 32.2424 63.0379 31.447 63.3523 30.7727C63.6667 30.0985 64.1042 29.5777 64.6648 29.2102C65.2254 28.8428 65.8731 28.6591 66.608 28.6591C67.1761 28.6591 67.625 28.7538 67.9545 28.9432C68.2879 29.1288 68.5417 29.3409 68.7159 29.5795C68.8939 29.8144 69.0322 30.0076 69.1307 30.1591H69.2443V25.8636H70.5852V37.5H69.2898V36.1591H69.1307C69.0322 36.3182 68.892 36.5189 68.7102 36.7614C68.5284 37 68.2689 37.214 67.9318 37.4034C67.5947 37.589 67.1458 37.6818 66.5852 37.6818ZM66.767 36.4773C67.3049 36.4773 67.7595 36.3371 68.1307 36.0568C68.5019 35.7727 68.7841 35.3807 68.9773 34.8807C69.1705 34.3769 69.267 33.7955 69.267 33.1364C69.267 32.4848 69.1723 31.9148 68.983 31.4261C68.7936 30.9337 68.5133 30.5511 68.142 30.2784C67.7708 30.0019 67.3125 29.8636 66.767 29.8636C66.1989 29.8636 65.7254 30.0095 65.3466 30.3011C64.9716 30.589 64.6894 30.9811 64.5 31.4773C64.3144 31.9697 64.2216 32.5227 64.2216 33.1364C64.2216 33.7576 64.3163 34.322 64.5057 34.8295C64.6989 35.3333 64.983 35.7348 65.358 36.0341C65.7367 36.3295 66.2064 36.4773 66.767 36.4773ZM73.2273 37.5V28.7727H74.5682V37.5H73.2273ZM73.9091 27.3182C73.6477 27.3182 73.4223 27.2292 73.233 27.0511C73.0473 26.8731 72.9545 26.6591 72.9545 26.4091C72.9545 26.1591 73.0473 25.9451 73.233 25.767C73.4223 25.589 73.6477 25.5 73.9091 25.5C74.1705 25.5 74.3939 25.589 74.5795 25.767C74.7689 25.9451 74.8636 26.1591 74.8636 26.4091C74.8636 26.6591 74.7689 26.8731 74.5795 27.0511C74.3939 27.2292 74.1705 27.3182 73.9091 27.3182ZM80.8196 28.7727V29.9091H76.2969V28.7727H80.8196ZM77.6151 26.6818H78.956V35C78.956 35.3788 79.0109 35.6629 79.1207 35.8523C79.2344 36.0379 79.3783 36.1629 79.5526 36.2273C79.7306 36.2879 79.9181 36.3182 80.1151 36.3182C80.2628 36.3182 80.384 36.3106 80.4787 36.2955C80.5734 36.2765 80.6491 36.2614 80.706 36.25L80.9787 37.4545C80.8878 37.4886 80.7609 37.5227 80.598 37.5568C80.4351 37.5947 80.2287 37.6136 79.9787 37.6136C79.5999 37.6136 79.2287 37.5322 78.8651 37.3693C78.5052 37.2064 78.206 36.9583 77.9673 36.625C77.7325 36.2917 77.6151 35.8712 77.6151 35.3636V26.6818Z" fill="#2A3647"/>
<mask id="mask1_48008_4080" style="mask-type:alpha" maskUnits="userSpaceOnUse" x="20" y="64" width="25" height="24">
<rect x="20.5" y="64" width="24" height="24" fill="#D9D9D9"/>
</mask>
<g mask="url(#mask1_48008_4080)">
<path d="M25.5 83H26.9L35.525 74.375L34.125 72.975L25.5 81.6V83ZM39.8 72.925L35.55 68.725L36.95 67.325C37.3333 66.9417 37.8042 66.75 38.3625 66.75C38.9208 66.75 39.3917 66.9417 39.775 67.325L41.175 68.725C41.5583 69.1083 41.7583 69.5708 41.775 70.1125C41.7917 70.6542 41.6083 71.1167 41.225 71.5L39.8 72.925ZM38.35 74.4L27.75 85H23.5V80.75L34.1 70.15L38.35 74.4Z" fill="#29ABE2"/>
</g>
<path d="M53.5114 81.5V69.8636H61.3523V71.892H55.9716V74.6648H60.9489V76.6932H55.9716V79.4716H61.375V81.5H53.5114ZM66.4787 81.642C65.8158 81.642 65.2154 81.4716 64.6776 81.1307C64.1435 80.786 63.7192 80.2803 63.4048 79.6136C63.0942 78.9432 62.9389 78.1212 62.9389 77.1477C62.9389 76.1477 63.0999 75.3163 63.4219 74.6534C63.7438 73.9867 64.1719 73.4886 64.706 73.1591C65.2438 72.8258 65.8329 72.6591 66.473 72.6591C66.9616 72.6591 67.3688 72.7424 67.6946 72.9091C68.0241 73.072 68.2893 73.2765 68.4901 73.5227C68.6946 73.7652 68.8499 74.0038 68.956 74.2386H69.0298V69.8636H71.4446V81.5H69.0582V80.1023H68.956C68.8423 80.3447 68.6813 80.5852 68.473 80.8239C68.2685 81.0587 68.0014 81.2538 67.6719 81.4091C67.3461 81.5644 66.9484 81.642 66.4787 81.642ZM67.2457 79.7159C67.6359 79.7159 67.9654 79.6098 68.2344 79.3977C68.5071 79.1818 68.7154 78.8807 68.8594 78.4943C69.0071 78.108 69.081 77.6553 69.081 77.1364C69.081 76.6174 69.009 76.1667 68.8651 75.7841C68.7211 75.4015 68.5128 75.1061 68.2401 74.8977C67.9673 74.6894 67.6359 74.5852 67.2457 74.5852C66.848 74.5852 66.5128 74.6932 66.2401 74.9091C65.9673 75.125 65.7609 75.4242 65.6207 75.8068C65.4806 76.1894 65.4105 76.6326 65.4105 77.1364C65.4105 77.6439 65.4806 78.0928 65.6207 78.483C65.7647 78.8693 65.9711 79.1723 66.2401 79.392C66.5128 79.608 66.848 79.7159 67.2457 79.7159ZM73.4347 81.5V72.7727H75.8551V81.5H73.4347ZM74.6506 71.6477C74.2907 71.6477 73.982 71.5284 73.7244 71.2898C73.4706 71.0473 73.3438 70.7576 73.3438 70.4205C73.3438 70.0871 73.4706 69.8011 73.7244 69.5625C73.982 69.3201 74.2907 69.1989 74.6506 69.1989C75.0104 69.1989 75.3172 69.3201 75.571 69.5625C75.8286 69.8011 75.9574 70.0871 75.9574 70.4205C75.9574 70.7576 75.8286 71.0473 75.571 71.2898C75.3172 71.5284 75.0104 71.6477 74.6506 71.6477ZM82.4361 72.7727V74.5909H77.1804V72.7727H82.4361ZM78.3736 70.6818H80.794V78.8182C80.794 79.0417 80.8281 79.2159 80.8963 79.3409C80.9645 79.4621 81.0592 79.5473 81.1804 79.5966C81.3054 79.6458 81.4493 79.6705 81.6122 79.6705C81.7259 79.6705 81.8395 79.661 81.9531 79.642C82.0668 79.6193 82.1539 79.6023 82.2145 79.5909L82.5952 81.392C82.474 81.4299 82.3035 81.4735 82.0838 81.5227C81.8641 81.5758 81.5971 81.608 81.2827 81.6193C80.6993 81.642 80.188 81.5644 79.7486 81.3864C79.313 81.2083 78.974 80.9318 78.7315 80.5568C78.4891 80.1818 78.3698 79.7083 78.3736 79.1364V70.6818Z" fill="#29ABE2"/>
</svg>
