<svg width="270" height="71" viewBox="0 0 270 71" fill="none" xmlns="http://www.w3.org/2000/svg">
<rect x="0.5" y="1.46582" width="269" height="69" rx="4.5" stroke="#9747FF" stroke-dasharray="10 5"/>
<path d="M45.2273 23.4658H24.7727H24.5C23.3954 23.4658 22.5 24.3615 22.5 25.4661C22.5 25.6459 22.5 25.7733 22.5 25.8058V46.2603V46.4658C22.5 47.5704 23.3957 48.4658 24.5003 48.4658C24.6438 48.4658 24.744 48.4658 24.7727 48.4658H45.2273C45.256 48.4658 45.3562 48.4658 45.4997 48.4658C46.6043 48.4658 47.5 47.5699 47.5 46.4653C47.5 46.3585 47.5 46.2846 47.5 46.2603V25.8058C47.5 25.7733 47.5 25.6459 47.5 25.4661C47.5 24.3615 46.6043 23.4658 45.4997 23.4658C45.3562 23.4658 45.256 23.4658 45.2273 23.4658ZM37.2727 46.2603H24.7727V37.1694H37.2727V46.2603ZM37.2727 34.8967H24.7727V25.8058L37.2727 25.8058V34.8967ZM45.2273 46.2603H39.5455V25.8058H45.2273V46.2603Z" fill="#CDCDCD"/>
<path d="M92.9546 25.7385L92.9546 46.1929C92.954 46.7955 92.7143 47.3732 92.2882 47.7993C91.8622 48.2253 91.2844 48.465 90.6819 48.4656L86.1365 48.4656C85.5339 48.465 84.9562 48.2253 84.5301 47.7993C84.104 47.3732 83.8644 46.7955 83.8638 46.1929L83.8638 25.7385C83.8644 25.136 84.104 24.5583 84.5301 24.1322C84.9562 23.7061 85.5339 23.4664 86.1365 23.4658L90.6819 23.4658C91.2844 23.4664 91.8622 23.7061 92.2882 24.1322C92.7143 24.5583 92.954 25.136 92.9546 25.7385ZM86.1365 46.1929L90.6819 46.1929L90.6819 25.7385L86.1365 25.7385L86.1365 46.1929ZM86.1365 25.7385L86.1365 46.1929C86.1359 46.7955 85.8962 47.3731 85.4701 47.7992C85.0441 48.2253 84.4663 48.4649 83.8638 48.4655L79.3184 48.4655C78.7158 48.4649 78.1381 48.2253 77.712 47.7992C77.2859 47.3731 77.0463 46.7954 77.0456 46.1928L77.0456 25.7385C77.0462 25.1359 77.2859 24.5582 77.712 24.1321C78.1381 23.7061 78.7158 23.4664 79.3184 23.4658L83.8638 23.4658C84.4663 23.4664 85.0441 23.7061 85.4701 24.1321C85.8962 24.5582 86.1359 25.136 86.1365 25.7385ZM79.3184 46.1928L83.8638 46.1929L83.8638 25.7385L79.3184 25.7385L79.3184 46.1928ZM79.3184 25.7385L79.3184 46.1928C79.3178 46.7954 79.0781 47.3731 78.652 47.7992C78.2259 48.2253 77.6482 48.4649 77.0456 48.4656L72.5002 48.4656C71.8977 48.4649 71.3199 48.2253 70.8939 47.7992C70.4678 47.3731 70.2281 46.7954 70.2275 46.1928L70.2275 25.7385C70.2281 25.136 70.4678 24.5582 70.8939 24.1321C71.3199 23.7061 71.8977 23.4664 72.5002 23.4658L77.0456 23.4658C77.6482 23.4664 78.2259 23.7061 78.652 24.1321C79.0781 24.5582 79.3177 25.1359 79.3184 25.7385ZM72.5002 46.1928L77.0456 46.1928L77.0456 25.7385L72.5002 25.7385L72.5002 46.1928Z" fill="#CDCDCD"/>
<path d="M99.7727 25.7388L99.7727 46.1931C99.7721 46.7957 99.5324 47.3734 99.1064 47.7995C98.6803 48.2256 98.1026 48.4652 97.5 48.4658L92.9546 48.4658C92.352 48.4652 91.7743 48.2256 91.3482 47.7995C90.9221 47.3734 90.6825 46.7955 90.6819 46.1929L90.6819 25.7385C90.6825 25.136 90.9221 24.5585 91.3482 24.1324C91.7743 23.7063 92.352 23.4667 92.9546 23.4661L97.5 23.4661C98.1026 23.4667 98.6803 23.7063 99.1064 24.1324C99.5324 24.5585 99.7721 25.1362 99.7727 25.7388ZM92.9546 46.1929L97.5 46.1931L97.5 25.7388L92.9546 25.7385L92.9546 46.1929Z" fill="#CDCDCD"/>
<mask id="mask0_69323_5222" style="mask-type:alpha" maskUnits="userSpaceOnUse" x="120" y="20" width="30" height="31">
<rect x="120" y="20.9658" width="30" height="30" fill="#D9D9D9"/>
</mask>
<g mask="url(#mask0_69323_5222)">
<path d="M124.627 48.1682C123.956 48.1682 123.382 47.9294 122.904 47.4517C122.426 46.9741 122.188 46.3999 122.188 45.7292V28.656C122.188 27.9853 122.426 27.4111 122.904 26.9334C123.382 26.4558 123.956 26.217 124.627 26.217H135.511L133.072 28.656H124.627V45.7292H141.7V37.2535L144.139 34.8145V45.7292C144.139 46.3999 143.9 46.9741 143.422 47.4517C142.945 47.9294 142.37 48.1682 141.7 48.1682H124.627ZM138.255 26.9182L139.992 28.6255L131.944 36.6743V38.4121H133.651L141.73 30.3328L143.468 32.0401L135.389 40.1194C135.165 40.343 134.906 40.5208 134.611 40.6529C134.317 40.7851 134.007 40.8511 133.681 40.8511H130.724C130.379 40.8511 130.089 40.7342 129.855 40.5005C129.621 40.2668 129.505 39.9771 129.505 39.6316V36.6743C129.505 36.3491 129.566 36.0391 129.688 35.7444C129.809 35.4497 129.982 35.1905 130.206 34.967L138.255 26.9182ZM143.468 32.0401L138.255 26.9182L141.303 23.8694C141.791 23.3816 142.376 23.1377 143.056 23.1377C143.737 23.1377 144.311 23.3816 144.779 23.8694L146.486 25.6072C146.954 26.0747 147.188 26.6438 147.188 27.3145C147.188 27.9853 146.954 28.5544 146.486 29.0218L143.468 32.0401Z" fill="#CDCDCD"/>
</g>
<mask id="mask1_69323_5222" style="mask-type:alpha" maskUnits="userSpaceOnUse" x="170" y="20" width="30" height="31">
<rect x="170" y="20.9658" width="30" height="30" fill="#D9D9D9"/>
</mask>
<g mask="url(#mask1_69323_5222)">
<path d="M185 43.4658C183.833 43.4658 182.719 43.6481 181.656 44.0127C180.594 44.3773 179.625 44.9242 178.75 45.6533V45.9658H191.25V45.6533C190.375 44.9242 189.406 44.3773 188.344 44.0127C187.281 43.6481 186.167 43.4658 185 43.4658ZM176.25 44.5283C177.375 43.4242 178.682 42.5544 180.172 41.9189C181.661 41.2835 183.271 40.9658 185 40.9658C186.729 40.9658 188.339 41.2835 189.828 41.9189C191.318 42.5544 192.625 43.4242 193.75 44.5283V28.4658H176.25V44.5283ZM185 38.4658C183.792 38.4658 182.76 38.0387 181.906 37.1846C181.052 36.3304 180.625 35.2992 180.625 34.0908C180.625 32.8825 181.052 31.8512 181.906 30.9971C182.76 30.1429 183.792 29.7158 185 29.7158C186.208 29.7158 187.24 30.1429 188.094 30.9971C188.948 31.8512 189.375 32.8825 189.375 34.0908C189.375 35.2992 188.948 36.3304 188.094 37.1846C187.24 38.0387 186.208 38.4658 185 38.4658ZM185 35.9658C185.521 35.9658 185.964 35.7835 186.328 35.4189C186.693 35.0544 186.875 34.6117 186.875 34.0908C186.875 33.57 186.693 33.1273 186.328 32.7627C185.964 32.3981 185.521 32.2158 185 32.2158C184.479 32.2158 184.036 32.3981 183.672 32.7627C183.307 33.1273 183.125 33.57 183.125 34.0908C183.125 34.6117 183.307 35.0544 183.672 35.4189C184.036 35.7835 184.479 35.9658 185 35.9658ZM176.25 48.4658C175.562 48.4658 174.974 48.221 174.484 47.7314C173.995 47.2419 173.75 46.6533 173.75 45.9658V28.4658C173.75 27.7783 173.995 27.1898 174.484 26.7002C174.974 26.2106 175.562 25.9658 176.25 25.9658H177.5V23.4658H180V25.9658H190V23.4658H192.5V25.9658H193.75C194.438 25.9658 195.026 26.2106 195.516 26.7002C196.005 27.1898 196.25 27.7783 196.25 28.4658V45.9658C196.25 46.6533 196.005 47.2419 195.516 47.7314C195.026 48.221 194.438 48.4658 193.75 48.4658H176.25Z" fill="#CDCDCD"/>
</g>
<mask id="mask2_69323_5222" style="mask-type:alpha" maskUnits="userSpaceOnUse" x="220" y="20" width="30" height="31">
<rect x="220" y="20.9658" width="30" height="30" fill="#D9D9D9"/>
</mask>
<g mask="url(#mask2_69323_5222)">
<mask id="mask3_69323_5222" style="mask-type:alpha" maskUnits="userSpaceOnUse" x="222" y="23" width="26" height="26">
<rect x="222" y="23" width="26" height="26" fill="#D9D9D9"/>
</mask>
<g mask="url(#mask3_69323_5222)">
<path d="M236.083 45.75C235.776 45.75 235.519 45.6462 235.311 45.4385C235.104 45.2309 235 44.9736 235 44.6667C235 44.3597 235.104 44.1024 235.311 43.8948C235.519 43.6872 235.776 43.5833 236.083 43.5833H242.583V28.4167H236.083C235.776 28.4167 235.519 28.3128 235.311 28.1052C235.104 27.8976 235 27.6403 235 27.3333C235 27.0264 235.104 26.7691 235.311 26.5615C235.519 26.3538 235.776 26.25 236.083 26.25H242.583C243.179 26.25 243.689 26.4622 244.114 26.8865C244.538 27.3108 244.75 27.8208 244.75 28.4167V43.5833C244.75 44.1792 244.538 44.6892 244.114 45.1135C243.689 45.5378 243.179 45.75 242.583 45.75H236.083ZM234.106 37.0833H226.333C226.026 37.0833 225.769 36.9795 225.561 36.7719C225.354 36.5642 225.25 36.3069 225.25 36C225.25 35.6931 225.354 35.4358 225.561 35.2281C225.769 35.0205 226.026 34.9167 226.333 34.9167H234.106L232.075 32.8854C231.876 32.6868 231.777 32.4431 231.777 32.1542C231.777 31.8653 231.876 31.6125 232.075 31.3958C232.274 31.1792 232.526 31.0663 232.833 31.0573C233.14 31.0483 233.402 31.1521 233.619 31.3688L237.492 35.2417C237.708 35.4583 237.817 35.7111 237.817 36C237.817 36.2889 237.708 36.5417 237.492 36.7583L233.619 40.6313C233.402 40.8479 233.145 40.9517 232.847 40.9427C232.549 40.9337 232.292 40.8208 232.075 40.6042C231.876 40.3875 231.782 40.1302 231.791 39.8323C231.8 39.5344 231.903 39.2861 232.102 39.0875L234.106 37.0833Z" fill="#CDCDCD"/>
</g>
</g>
</svg>
