<svg width="524" height="71" viewBox="0 0 524 71" fill="none" xmlns="http://www.w3.org/2000/svg">
<rect x="0.5" y="1.46582" width="523" height="69" rx="4.5" stroke="#9747FF" stroke-dasharray="10 5"/>
<path d="M101.227 23.4658H80.7727H80.5C79.3954 23.4658 78.5 24.3615 78.5 25.4661C78.5 25.6459 78.5 25.7733 78.5 25.8058V46.2603V46.4658C78.5 47.5704 79.3957 48.4658 80.5003 48.4658C80.6438 48.4658 80.744 48.4658 80.7727 48.4658H101.227C101.256 48.4658 101.356 48.4658 101.5 48.4658C102.604 48.4658 103.5 47.5699 103.5 46.4653C103.5 46.3585 103.5 46.2846 103.5 46.2603V25.8058C103.5 25.7733 103.5 25.6459 103.5 25.4661C103.5 24.3615 102.604 23.4658 101.5 23.4658C101.356 23.4658 101.256 23.4658 101.227 23.4658ZM93.2727 46.2603H80.7727V37.1694H93.2727V46.2603ZM93.2727 34.8967H80.7727V25.8058L93.2727 25.8058V34.8967ZM101.227 46.2603H95.5455V25.8058H101.227V46.2603Z" fill="#CDCDCD"/>
<path d="M114.773 31.0795V29.8295H123.5V31.0795H119.841V41.4658H118.432V31.0795H114.773ZM127.886 41.6476C127.045 41.6476 126.32 41.462 125.71 41.0908C125.104 40.7158 124.636 40.1931 124.307 39.5226C123.981 38.8484 123.818 38.0643 123.818 37.1704C123.818 36.2764 123.981 35.4885 124.307 34.8067C124.636 34.1211 125.095 33.587 125.682 33.2045C126.273 32.8181 126.962 32.6249 127.75 32.6249C128.205 32.6249 128.653 32.7007 129.097 32.8522C129.54 33.0037 129.943 33.2499 130.307 33.5908C130.67 33.9279 130.96 34.3749 131.176 34.9317C131.392 35.4885 131.5 36.1742 131.5 36.9885V37.5567H124.773V36.3976H130.136C130.136 35.9052 130.038 35.4658 129.841 35.0795C129.648 34.6931 129.371 34.3882 129.011 34.1647C128.655 33.9412 128.235 33.8295 127.75 33.8295C127.216 33.8295 126.754 33.962 126.364 34.2272C125.977 34.4885 125.68 34.8295 125.472 35.2499C125.263 35.6704 125.159 36.1211 125.159 36.6022V37.3749C125.159 38.034 125.273 38.5927 125.5 39.051C125.731 39.5056 126.051 39.8522 126.46 40.0908C126.869 40.3257 127.345 40.4431 127.886 40.4431C128.239 40.4431 128.557 40.3939 128.841 40.2954C129.129 40.1931 129.377 40.0416 129.585 39.8408C129.794 39.6363 129.955 39.3825 130.068 39.0795L131.364 39.4431C131.227 39.8825 130.998 40.2689 130.676 40.6022C130.354 40.9317 129.956 41.1893 129.483 41.3749C129.009 41.5567 128.477 41.6476 127.886 41.6476ZM134.305 32.7385L136.396 36.3067L138.487 32.7385H140.033L137.214 37.1022L140.033 41.4658H138.487L136.396 38.0795L134.305 41.4658H132.76L135.533 37.1022L132.76 32.7385H134.305ZM145.741 32.7385V33.8749H141.219V32.7385H145.741ZM142.537 30.6476H143.878V38.9658C143.878 39.3446 143.933 39.6287 144.043 39.8181C144.156 40.0037 144.3 40.1287 144.474 40.1931C144.652 40.2537 144.84 40.284 145.037 40.284C145.185 40.284 145.306 40.2764 145.401 40.2613C145.495 40.2423 145.571 40.2272 145.628 40.2158L145.901 41.4204C145.81 41.4545 145.683 41.4885 145.52 41.5226C145.357 41.5605 145.151 41.5795 144.901 41.5795C144.522 41.5795 144.151 41.498 143.787 41.3351C143.427 41.1723 143.128 40.9242 142.889 40.5908C142.654 40.2575 142.537 39.837 142.537 39.3295V30.6476Z" fill="#CDCDCD"/>
<rect width="232" height="46" transform="translate(272 12.9658)" fill="#2A3D59"/>
<path d="M353.227 23.4658H332.773H332.5C331.395 23.4658 330.5 24.3615 330.5 25.4661C330.5 25.6459 330.5 25.7733 330.5 25.8058V46.2603V46.4658C330.5 47.5704 331.396 48.4658 332.5 48.4658C332.644 48.4658 332.744 48.4658 332.773 48.4658H353.227C353.256 48.4658 353.356 48.4658 353.5 48.4658C354.604 48.4658 355.5 47.5699 355.5 46.4653C355.5 46.3585 355.5 46.2846 355.5 46.2603V25.8058C355.5 25.7733 355.5 25.6459 355.5 25.4661C355.5 24.3615 354.604 23.4658 353.5 23.4658C353.356 23.4658 353.256 23.4658 353.227 23.4658ZM345.273 46.2603H332.773V37.1694H345.273V46.2603ZM345.273 34.8967H332.773V25.8058L345.273 25.8058V34.8967ZM353.227 46.2603H347.545V25.8058H353.227V46.2603Z" fill="#CDCDCD"/>
<path d="M366.773 31.0795V29.8295H375.5V31.0795H371.841V41.4658H370.432V31.0795H366.773ZM379.886 41.6476C379.045 41.6476 378.32 41.462 377.71 41.0908C377.104 40.7158 376.636 40.1931 376.307 39.5226C375.981 38.8484 375.818 38.0643 375.818 37.1704C375.818 36.2764 375.981 35.4885 376.307 34.8067C376.636 34.1211 377.095 33.587 377.682 33.2045C378.273 32.8181 378.962 32.6249 379.75 32.6249C380.205 32.6249 380.653 32.7007 381.097 32.8522C381.54 33.0037 381.943 33.2499 382.307 33.5908C382.67 33.9279 382.96 34.3749 383.176 34.9317C383.392 35.4885 383.5 36.1742 383.5 36.9885V37.5567H376.773V36.3976H382.136C382.136 35.9052 382.038 35.4658 381.841 35.0795C381.648 34.6931 381.371 34.3882 381.011 34.1647C380.655 33.9412 380.235 33.8295 379.75 33.8295C379.216 33.8295 378.754 33.962 378.364 34.2272C377.977 34.4885 377.68 34.8295 377.472 35.2499C377.263 35.6704 377.159 36.1211 377.159 36.6022V37.3749C377.159 38.034 377.273 38.5927 377.5 39.051C377.731 39.5056 378.051 39.8522 378.46 40.0908C378.869 40.3257 379.345 40.4431 379.886 40.4431C380.239 40.4431 380.557 40.3939 380.841 40.2954C381.129 40.1931 381.377 40.0416 381.585 39.8408C381.794 39.6363 381.955 39.3825 382.068 39.0795L383.364 39.4431C383.227 39.8825 382.998 40.2689 382.676 40.6022C382.354 40.9317 381.956 41.1893 381.483 41.3749C381.009 41.5567 380.477 41.6476 379.886 41.6476ZM386.305 32.7385L388.396 36.3067L390.487 32.7385H392.033L389.214 37.1022L392.033 41.4658H390.487L388.396 38.0795L386.305 41.4658H384.76L387.533 37.1022L384.76 32.7385H386.305ZM397.741 32.7385V33.8749H393.219V32.7385H397.741ZM394.537 30.6476H395.878V38.9658C395.878 39.3446 395.933 39.6287 396.043 39.8181C396.156 40.0037 396.3 40.1287 396.474 40.1931C396.652 40.2537 396.84 40.284 397.037 40.284C397.185 40.284 397.306 40.2764 397.401 40.2613C397.495 40.2423 397.571 40.2272 397.628 40.2158L397.901 41.4204C397.81 41.4545 397.683 41.4885 397.52 41.5226C397.357 41.5605 397.151 41.5795 396.901 41.5795C396.522 41.5795 396.151 41.498 395.787 41.3351C395.427 41.1723 395.128 40.9242 394.889 40.5908C394.654 40.2575 394.537 39.837 394.537 39.3295V30.6476Z" fill="#CDCDCD"/>
</svg>
