<svg width="72" height="170" viewBox="0 0 72 170" fill="none" xmlns="http://www.w3.org/2000/svg">
<rect x="0.5" y="0.5" width="71" height="169" rx="4.5" stroke="#9747FF" stroke-dasharray="10 5"/>
<g clip-path="url(#clip0_75609_16169)">
<path d="M36 37.2452C35.8006 37.2456 35.6063 37.1837 35.4457 37.0686L27.8772 31.6347C27.7788 31.5639 27.6956 31.475 27.6325 31.373C27.5693 31.2709 27.5275 31.1578 27.5093 31.0401C27.4727 30.8023 27.5346 30.5601 27.6816 30.3667C27.8286 30.1734 28.0486 30.0447 28.2932 30.0091C28.5377 29.9734 28.7869 30.0336 28.9857 30.1766L36 35.2075L43.0142 30.1766C43.1127 30.1058 43.2245 30.0546 43.3434 30.0258C43.4622 29.9971 43.5857 29.9914 43.7068 30.0091C43.8279 30.0267 43.9442 30.0674 44.0492 30.1288C44.1541 30.1901 44.2456 30.271 44.3183 30.3667C44.3911 30.4625 44.4438 30.5712 44.4734 30.6868C44.5029 30.8023 44.5088 30.9224 44.4906 31.0401C44.4725 31.1578 44.4306 31.2709 44.3675 31.373C44.3044 31.475 44.2212 31.5639 44.1227 31.6347L36.5542 37.0686C36.3937 37.1837 36.1994 37.2456 36 37.2452Z" fill="#7AE229"/>
<path d="M36 42.0001C35.8006 42.0005 35.6063 41.9386 35.4457 41.8235L27.8772 36.3896C27.6784 36.2466 27.546 36.0328 27.5093 35.795C27.4727 35.5572 27.5346 35.315 27.6816 35.1216C27.8286 34.9283 28.0486 34.7996 28.2932 34.7639C28.5377 34.7283 28.7869 34.7885 28.9857 34.9314L36 39.9624L43.0142 34.9314C43.2131 34.7885 43.4622 34.7283 43.7068 34.7639C43.9514 34.7996 44.1713 34.9283 44.3183 35.1216C44.4653 35.315 44.5273 35.5572 44.4906 35.795C44.4539 36.0328 44.3216 36.2466 44.1227 36.3896L36.5542 41.8235C36.3937 41.9386 36.1994 42.0005 36 42.0001Z" fill="#7AE229"/>
</g>
<g clip-path="url(#clip1_75609_16169)">
<path d="M36 83.7548C36.1994 83.7544 36.3937 83.8163 36.5543 83.9314L44.1228 89.3653C44.2212 89.4361 44.3044 89.525 44.3675 89.627C44.4307 89.7291 44.4725 89.8422 44.4907 89.9599C44.5273 90.1977 44.4654 90.4399 44.3184 90.6333C44.1714 90.8266 43.9514 90.9553 43.7068 90.9909C43.4623 91.0266 43.2131 90.9664 43.0143 90.8234L36 85.7925L28.9858 90.8234C28.8873 90.8942 28.7755 90.9454 28.6566 90.9742C28.5378 91.0029 28.4143 91.0086 28.2932 90.9909C28.1721 90.9733 28.0558 90.9326 27.9508 90.8712C27.8459 90.8099 27.7544 90.729 27.6817 90.6333C27.6089 90.5375 27.5562 90.4288 27.5266 90.3132C27.4971 90.1977 27.4912 90.0776 27.5094 89.9599C27.5275 89.8422 27.5694 89.7291 27.6325 89.627C27.6956 89.525 27.7788 89.4361 27.8773 89.3653L35.4458 83.9314C35.6063 83.8163 35.8006 83.7544 36 83.7548Z" fill="#FF3D00"/>
<path d="M36 78.9999C36.1994 78.9995 36.3937 79.0614 36.5543 79.1765L44.1228 84.6104C44.3216 84.7534 44.454 84.9672 44.4907 85.205C44.5273 85.4428 44.4654 85.685 44.3184 85.8784C44.1714 86.0717 43.9514 86.2004 43.7068 86.2361C43.4623 86.2717 43.2131 86.2115 43.0143 86.0686L36 81.0376L28.9858 86.0686C28.7869 86.2115 28.5378 86.2717 28.2932 86.2361C28.0486 86.2004 27.8287 86.0717 27.6817 85.8784C27.5347 85.685 27.4727 85.4428 27.5094 85.205C27.5461 84.9672 27.6784 84.7534 27.8773 84.6104L35.4458 79.1765C35.6063 79.0614 35.8006 78.9995 36 78.9999Z" fill="#FF3D00"/>
</g>
<g clip-path="url(#clip2_75609_16169)">
<path d="M43.5685 137.167H28.4315C28.1845 137.167 27.9475 137.068 27.7728 136.892C27.5981 136.716 27.5 136.477 27.5 136.228C27.5 135.979 27.5981 135.741 27.7728 135.565C27.9475 135.389 28.1845 135.29 28.4315 135.29H43.5685C43.8155 135.29 44.0525 135.389 44.2272 135.565C44.4019 135.741 44.5 135.979 44.5 136.228C44.5 136.477 44.4019 136.716 44.2272 136.892C44.0525 137.068 43.8155 137.167 43.5685 137.167Z" fill="#FFA800"/>
<path d="M43.5685 132.71H28.4315C28.1845 132.71 27.9475 132.611 27.7728 132.435C27.5981 132.259 27.5 132.02 27.5 131.772C27.5 131.523 27.5981 131.284 27.7728 131.108C27.9475 130.932 28.1845 130.833 28.4315 130.833H43.5685C43.8155 130.833 44.0525 130.932 44.2272 131.108C44.4019 131.284 44.5 131.523 44.5 131.772C44.5 132.02 44.4019 132.259 44.2272 132.435C44.0525 132.611 43.8155 132.71 43.5685 132.71Z" fill="#FFA800"/>
</g>
<defs>
<clipPath id="clip0_75609_16169">
<rect width="17" height="12" fill="white" transform="translate(27.5 30)"/>
</clipPath>
<clipPath id="clip1_75609_16169">
<rect width="17" height="12" fill="white" transform="translate(44.5 91) rotate(-180)"/>
</clipPath>
<clipPath id="clip2_75609_16169">
<rect width="17" height="6.33333" fill="white" transform="translate(27.5 130.833)"/>
</clipPath>
</defs>
</svg>
