<svg width="72" height="178" viewBox="0 0 72 178" fill="none" xmlns="http://www.w3.org/2000/svg">
<rect x="0.5" y="0.5" width="71" height="177" rx="4.5" stroke="#9747FF" stroke-dasharray="10 5"/>
<mask id="mask0_75609_16018" style="mask-type:alpha" maskUnits="userSpaceOnUse" x="20" y="20" width="32" height="32">
<rect x="20" y="20" width="32" height="32" fill="#D9D9D9"/>
</mask>
<g mask="url(#mask0_75609_16018)">
<path d="M33.7118 40.2137C31.8946 40.2137 30.3567 39.5843 29.098 38.3256C27.8393 37.0669 27.21 35.529 27.21 33.7118C27.21 31.8946 27.8393 30.3567 29.098 29.098C30.3567 27.8393 31.8946 27.21 33.7118 27.21C35.529 27.21 37.0669 27.8393 38.3256 29.098C39.5843 30.3567 40.2137 31.8946 40.2137 33.7118C40.2137 34.4454 40.097 35.1372 39.8636 35.7874C39.6302 36.4376 39.3134 37.0127 38.9133 37.5129L44.5149 43.1145C44.6983 43.2979 44.79 43.5313 44.79 43.8147C44.79 44.0981 44.6983 44.3315 44.5149 44.5149C44.3315 44.6983 44.0981 44.79 43.8147 44.79C43.5313 44.79 43.2979 44.6983 43.1145 44.5149L37.5129 38.9133C37.0127 39.3134 36.4376 39.6302 35.7874 39.8636C35.1372 40.097 34.4454 40.2137 33.7118 40.2137ZM33.7118 38.2131C34.9622 38.2131 36.025 37.7755 36.9002 36.9002C37.7755 36.025 38.2131 34.9622 38.2131 33.7118C38.2131 32.4615 37.7755 31.3987 36.9002 30.5234C36.025 29.6482 34.9622 29.2105 33.7118 29.2105C32.4615 29.2105 31.3987 29.6482 30.5234 30.5234C29.6482 31.3987 29.2105 32.4615 29.2105 33.7118C29.2105 34.9622 29.6482 36.025 30.5234 36.9002C31.3987 37.7755 32.4615 38.2131 33.7118 38.2131Z" fill="#2A3647"/>
</g>
<rect x="20" y="73" width="32" height="32" rx="16" fill="#EEEEEE"/>
<mask id="mask1_75609_16018" style="mask-type:alpha" maskUnits="userSpaceOnUse" x="20" y="73" width="32" height="32">
<rect x="20" y="73" width="32" height="32" fill="#D9D9D9"/>
</mask>
<g mask="url(#mask1_75609_16018)">
<path d="M33.7118 93.2137C31.8946 93.2137 30.3567 92.5843 29.098 91.3256C27.8393 90.0669 27.21 88.529 27.21 86.7118C27.21 84.8946 27.8393 83.3567 29.098 82.098C30.3567 80.8393 31.8946 80.21 33.7118 80.21C35.529 80.21 37.0669 80.8393 38.3256 82.098C39.5843 83.3567 40.2137 84.8946 40.2137 86.7118C40.2137 87.4454 40.097 88.1372 39.8636 88.7874C39.6302 89.4376 39.3134 90.0127 38.9133 90.5129L44.5149 96.1145C44.6983 96.2979 44.79 96.5313 44.79 96.8147C44.79 97.0981 44.6983 97.3315 44.5149 97.5149C44.3315 97.6983 44.0981 97.79 43.8147 97.79C43.5313 97.79 43.2979 97.6983 43.1145 97.5149L37.5129 91.9133C37.0127 92.3134 36.4376 92.6302 35.7874 92.8636C35.1372 93.097 34.4454 93.2137 33.7118 93.2137ZM33.7118 91.2131C34.9622 91.2131 36.025 90.7755 36.9002 89.9002C37.7755 89.025 38.2131 87.9622 38.2131 86.7118C38.2131 85.4615 37.7755 84.3987 36.9002 83.5234C36.025 82.6482 34.9622 82.2105 33.7118 82.2105C32.4615 82.2105 31.3987 82.6482 30.5234 83.5234C29.6482 84.3987 29.2105 85.4615 29.2105 86.7118C29.2105 87.9622 29.6482 89.025 30.5234 89.9002C31.3987 90.7755 32.4615 91.2131 33.7118 91.2131Z" fill="#2A3647"/>
</g>
<mask id="mask2_75609_16018" style="mask-type:alpha" maskUnits="userSpaceOnUse" x="20" y="126" width="32" height="32">
<rect x="20" y="126" width="32" height="32" fill="#D9D9D9"/>
</mask>
<g mask="url(#mask2_75609_16018)">
<path d="M33.7118 146.214C31.8946 146.214 30.3567 145.584 29.098 144.326C27.8393 143.067 27.21 141.529 27.21 139.712C27.21 137.895 27.8393 136.357 29.098 135.098C30.3567 133.839 31.8946 133.21 33.7118 133.21C35.529 133.21 37.0669 133.839 38.3256 135.098C39.5843 136.357 40.2137 137.895 40.2137 139.712C40.2137 140.445 40.097 141.137 39.8636 141.787C39.6302 142.438 39.3134 143.013 38.9133 143.513L44.5149 149.114C44.6983 149.298 44.79 149.531 44.79 149.815C44.79 150.098 44.6983 150.331 44.5149 150.515C44.3315 150.698 44.0981 150.79 43.8147 150.79C43.5313 150.79 43.2979 150.698 43.1145 150.515L37.5129 144.913C37.0127 145.313 36.4376 145.63 35.7874 145.864C35.1372 146.097 34.4454 146.214 33.7118 146.214ZM33.7118 144.213C34.9622 144.213 36.025 143.775 36.9002 142.9C37.7755 142.025 38.2131 140.962 38.2131 139.712C38.2131 138.461 37.7755 137.399 36.9002 136.523C36.025 135.648 34.9622 135.211 33.7118 135.211C32.4615 135.211 31.3987 135.648 30.5234 136.523C29.6482 137.399 29.2105 138.461 29.2105 139.712C29.2105 140.962 29.6482 142.025 30.5234 142.9C31.3987 143.775 32.4615 144.213 33.7118 144.213Z" fill="#29ABE2"/>
</g>
</svg>
