<svg width="73" height="406" viewBox="0 0 73 406" fill="none" xmlns="http://www.w3.org/2000/svg">
<rect x="0.644531" y="0.5" width="71" height="405" rx="4.5" stroke="#9747FF" stroke-dasharray="10 5"/>
<mask id="mask0_75592_9950" style="mask-type:alpha" maskUnits="userSpaceOnUse" x="24" y="20" width="25" height="24">
<rect x="24.1445" y="20" width="24" height="24" fill="#D9D9D9"/>
</mask>
<g mask="url(#mask0_75592_9950)">
<path d="M31.1445 41C30.5945 41 30.1237 40.8042 29.732 40.4125C29.3404 40.0208 29.1445 39.55 29.1445 39V26C28.8612 26 28.6237 25.9042 28.432 25.7125C28.2404 25.5208 28.1445 25.2833 28.1445 25C28.1445 24.7167 28.2404 24.4792 28.432 24.2875C28.6237 24.0958 28.8612 24 29.1445 24H33.1445C33.1445 23.7167 33.2404 23.4792 33.432 23.2875C33.6237 23.0958 33.8612 23 34.1445 23H38.1445C38.4279 23 38.6654 23.0958 38.857 23.2875C39.0487 23.4792 39.1445 23.7167 39.1445 24H43.1445C43.4279 24 43.6654 24.0958 43.857 24.2875C44.0487 24.4792 44.1445 24.7167 44.1445 25C44.1445 25.2833 44.0487 25.5208 43.857 25.7125C43.6654 25.9042 43.4279 26 43.1445 26V39C43.1445 39.55 42.9487 40.0208 42.557 40.4125C42.1654 40.8042 41.6945 41 41.1445 41H31.1445ZM31.1445 26V39H41.1445V26H31.1445ZM33.1445 36C33.1445 36.2833 33.2404 36.5208 33.432 36.7125C33.6237 36.9042 33.8612 37 34.1445 37C34.4279 37 34.6654 36.9042 34.857 36.7125C35.0487 36.5208 35.1445 36.2833 35.1445 36V29C35.1445 28.7167 35.0487 28.4792 34.857 28.2875C34.6654 28.0958 34.4279 28 34.1445 28C33.8612 28 33.6237 28.0958 33.432 28.2875C33.2404 28.4792 33.1445 28.7167 33.1445 29V36ZM37.1445 36C37.1445 36.2833 37.2404 36.5208 37.432 36.7125C37.6237 36.9042 37.8612 37 38.1445 37C38.4279 37 38.6654 36.9042 38.857 36.7125C39.0487 36.5208 39.1445 36.2833 39.1445 36V29C39.1445 28.7167 39.0487 28.4792 38.857 28.2875C38.6654 28.0958 38.4279 28 38.1445 28C37.8612 28 37.6237 28.0958 37.432 28.2875C37.2404 28.4792 37.1445 28.7167 37.1445 29V36Z" fill="#2A3647"/>
</g>
<rect x="24.1445" y="58" width="24" height="24" rx="12" fill="#EEEEEE"/>
<mask id="mask1_75592_9950" style="mask-type:alpha" maskUnits="userSpaceOnUse" x="24" y="58" width="25" height="24">
<rect x="24.1445" y="58" width="24" height="24" fill="#D9D9D9"/>
</mask>
<g mask="url(#mask1_75592_9950)">
<path d="M31.1445 79C30.5945 79 30.1237 78.8042 29.732 78.4125C29.3404 78.0208 29.1445 77.55 29.1445 77V64C28.8612 64 28.6237 63.9042 28.432 63.7125C28.2404 63.5208 28.1445 63.2833 28.1445 63C28.1445 62.7167 28.2404 62.4792 28.432 62.2875C28.6237 62.0958 28.8612 62 29.1445 62H33.1445C33.1445 61.7167 33.2404 61.4792 33.432 61.2875C33.6237 61.0958 33.8612 61 34.1445 61H38.1445C38.4279 61 38.6654 61.0958 38.857 61.2875C39.0487 61.4792 39.1445 61.7167 39.1445 62H43.1445C43.4279 62 43.6654 62.0958 43.857 62.2875C44.0487 62.4792 44.1445 62.7167 44.1445 63C44.1445 63.2833 44.0487 63.5208 43.857 63.7125C43.6654 63.9042 43.4279 64 43.1445 64V77C43.1445 77.55 42.9487 78.0208 42.557 78.4125C42.1654 78.8042 41.6945 79 41.1445 79H31.1445ZM31.1445 64V77H41.1445V64H31.1445ZM33.1445 74C33.1445 74.2833 33.2404 74.5208 33.432 74.7125C33.6237 74.9042 33.8612 75 34.1445 75C34.4279 75 34.6654 74.9042 34.857 74.7125C35.0487 74.5208 35.1445 74.2833 35.1445 74V67C35.1445 66.7167 35.0487 66.4792 34.857 66.2875C34.6654 66.0958 34.4279 66 34.1445 66C33.8612 66 33.6237 66.0958 33.432 66.2875C33.2404 66.4792 33.1445 66.7167 33.1445 67V74ZM37.1445 74C37.1445 74.2833 37.2404 74.5208 37.432 74.7125C37.6237 74.9042 37.8612 75 38.1445 75C38.4279 75 38.6654 74.9042 38.857 74.7125C39.0487 74.5208 39.1445 74.2833 39.1445 74V67C39.1445 66.7167 39.0487 66.4792 38.857 66.2875C38.6654 66.0958 38.4279 66 38.1445 66C37.8612 66 37.6237 66.0958 37.432 66.2875C37.2404 66.4792 37.1445 66.7167 37.1445 67V74Z" fill="#2A3647"/>
</g>
<mask id="mask2_75592_9950" style="mask-type:alpha" maskUnits="userSpaceOnUse" x="24" y="96" width="25" height="24">
<rect x="24.1445" y="96" width="24" height="24" fill="#D9D9D9"/>
</mask>
<g mask="url(#mask2_75592_9950)">
<path d="M36.1443 109.4L31.2443 114.3C31.061 114.483 30.8277 114.575 30.5443 114.575C30.261 114.575 30.0277 114.483 29.8443 114.3C29.661 114.117 29.5693 113.883 29.5693 113.6C29.5693 113.317 29.661 113.083 29.8443 112.9L34.7443 108L29.8443 103.1C29.661 102.917 29.5693 102.683 29.5693 102.4C29.5693 102.117 29.661 101.883 29.8443 101.7C30.0277 101.517 30.261 101.425 30.5443 101.425C30.8277 101.425 31.061 101.517 31.2443 101.7L36.1443 106.6L41.0443 101.7C41.2277 101.517 41.461 101.425 41.7443 101.425C42.0277 101.425 42.261 101.517 42.4443 101.7C42.6277 101.883 42.7193 102.117 42.7193 102.4C42.7193 102.683 42.6277 102.917 42.4443 103.1L37.5443 108L42.4443 112.9C42.6277 113.083 42.7193 113.317 42.7193 113.6C42.7193 113.883 42.6277 114.117 42.4443 114.3C42.261 114.483 42.0277 114.575 41.7443 114.575C41.461 114.575 41.2277 114.483 41.0443 114.3L36.1443 109.4Z" fill="#2A3647"/>
</g>
<rect x="24.1445" y="134" width="24" height="24" rx="12" fill="#EEEEEE"/>
<mask id="mask3_75592_9950" style="mask-type:alpha" maskUnits="userSpaceOnUse" x="24" y="134" width="25" height="24">
<rect x="24.1445" y="134" width="24" height="24" fill="#D9D9D9"/>
</mask>
<g mask="url(#mask3_75592_9950)">
<path d="M36.1443 147.4L31.2443 152.3C31.061 152.483 30.8277 152.575 30.5443 152.575C30.261 152.575 30.0277 152.483 29.8443 152.3C29.661 152.117 29.5693 151.883 29.5693 151.6C29.5693 151.317 29.661 151.083 29.8443 150.9L34.7443 146L29.8443 141.1C29.661 140.917 29.5693 140.683 29.5693 140.4C29.5693 140.117 29.661 139.883 29.8443 139.7C30.0277 139.517 30.261 139.425 30.5443 139.425C30.8277 139.425 31.061 139.517 31.2443 139.7L36.1443 144.6L41.0443 139.7C41.2277 139.517 41.461 139.425 41.7443 139.425C42.0277 139.425 42.261 139.517 42.4443 139.7C42.6277 139.883 42.7193 140.117 42.7193 140.4C42.7193 140.683 42.6277 140.917 42.4443 141.1L37.5443 146L42.4443 150.9C42.6277 151.083 42.7193 151.317 42.7193 151.6C42.7193 151.883 42.6277 152.117 42.4443 152.3C42.261 152.483 42.0277 152.575 41.7443 152.575C41.461 152.575 41.2277 152.483 41.0443 152.3L36.1443 147.4Z" fill="#2A3647"/>
</g>
<mask id="mask4_75592_9950" style="mask-type:alpha" maskUnits="userSpaceOnUse" x="24" y="172" width="25" height="24">
<rect x="24.1445" y="172" width="24" height="24" fill="#D9D9D9"/>
</mask>
<g mask="url(#mask4_75592_9950)">
<path d="M33.6947 187.15L42.1697 178.675C42.3697 178.475 42.6072 178.375 42.8822 178.375C43.1572 178.375 43.3947 178.475 43.5947 178.675C43.7947 178.875 43.8947 179.113 43.8947 179.388C43.8947 179.663 43.7947 179.9 43.5947 180.1L34.3947 189.3C34.1947 189.5 33.9614 189.6 33.6947 189.6C33.4281 189.6 33.1947 189.5 32.9947 189.3L28.6947 185C28.4947 184.8 28.3989 184.562 28.4072 184.287C28.4156 184.012 28.5197 183.775 28.7197 183.575C28.9197 183.375 29.1572 183.275 29.4322 183.275C29.7072 183.275 29.9447 183.375 30.1447 183.575L33.6947 187.15Z" fill="#2A3647"/>
</g>
<rect x="24.1445" y="210" width="24" height="24" rx="12" fill="#EEEEEE"/>
<mask id="mask5_75592_9950" style="mask-type:alpha" maskUnits="userSpaceOnUse" x="24" y="210" width="25" height="24">
<rect x="24.1445" y="210" width="24" height="24" fill="#D9D9D9"/>
</mask>
<g mask="url(#mask5_75592_9950)">
<path d="M33.6947 225.15L42.1697 216.675C42.3697 216.475 42.6072 216.375 42.8822 216.375C43.1572 216.375 43.3947 216.475 43.5947 216.675C43.7947 216.875 43.8947 217.113 43.8947 217.388C43.8947 217.663 43.7947 217.9 43.5947 218.1L34.3947 227.3C34.1947 227.5 33.9614 227.6 33.6947 227.6C33.4281 227.6 33.1947 227.5 32.9947 227.3L28.6947 223C28.4947 222.8 28.3989 222.562 28.4072 222.287C28.4156 222.012 28.5197 221.775 28.7197 221.575C28.9197 221.375 29.1572 221.275 29.4322 221.275C29.7072 221.275 29.9447 221.375 30.1447 221.575L33.6947 225.15Z" fill="#2A3647"/>
</g>
<mask id="mask6_75592_9950" style="mask-type:alpha" maskUnits="userSpaceOnUse" x="24" y="248" width="25" height="24">
<rect x="24.1445" y="248" width="24" height="24" fill="#D9D9D9"/>
</mask>
<g mask="url(#mask6_75592_9950)">
<path d="M29.1445 267H30.5445L39.1695 258.375L37.7695 256.975L29.1445 265.6V267ZM43.4445 256.925L39.1945 252.725L40.5945 251.325C40.9779 250.942 41.4487 250.75 42.007 250.75C42.5654 250.75 43.0362 250.942 43.4195 251.325L44.8195 252.725C45.2029 253.108 45.4029 253.571 45.4195 254.112C45.4362 254.654 45.2529 255.117 44.8695 255.5L43.4445 256.925ZM41.9945 258.4L31.3945 269H27.1445V264.75L37.7445 254.15L41.9945 258.4Z" fill="#2A3647"/>
</g>
<rect x="24.1445" y="286" width="24" height="24" rx="12" fill="#EEEEEE"/>
<mask id="mask7_75592_9950" style="mask-type:alpha" maskUnits="userSpaceOnUse" x="24" y="286" width="25" height="24">
<rect x="24.1445" y="286" width="24" height="24" fill="#D9D9D9"/>
</mask>
<g mask="url(#mask7_75592_9950)">
<path d="M29.1445 305H30.5445L39.1695 296.375L37.7695 294.975L29.1445 303.6V305ZM43.4445 294.925L39.1945 290.725L40.5945 289.325C40.9779 288.942 41.4487 288.75 42.007 288.75C42.5654 288.75 43.0362 288.942 43.4195 289.325L44.8195 290.725C45.2029 291.108 45.4029 291.571 45.4195 292.112C45.4362 292.654 45.2529 293.117 44.8695 293.5L43.4445 294.925ZM41.9945 296.4L31.3945 307H27.1445V302.75L37.7445 292.15L41.9945 296.4Z" fill="#2A3647"/>
</g>
<mask id="mask8_75592_9950" style="mask-type:alpha" maskUnits="userSpaceOnUse" x="24" y="324" width="25" height="24">
<rect x="24.1445" y="324" width="24" height="24" fill="#D9D9D9"/>
</mask>
<g mask="url(#mask8_75592_9950)">
<path d="M35.1445 337H30.1445C29.8612 337 29.6237 336.904 29.432 336.713C29.2404 336.521 29.1445 336.283 29.1445 336C29.1445 335.717 29.2404 335.479 29.432 335.287C29.6237 335.096 29.8612 335 30.1445 335H35.1445V330C35.1445 329.717 35.2404 329.479 35.432 329.287C35.6237 329.096 35.8612 329 36.1445 329C36.4279 329 36.6654 329.096 36.857 329.287C37.0487 329.479 37.1445 329.717 37.1445 330V335H42.1445C42.4279 335 42.6654 335.096 42.857 335.287C43.0487 335.479 43.1445 335.717 43.1445 336C43.1445 336.283 43.0487 336.521 42.857 336.713C42.6654 336.904 42.4279 337 42.1445 337H37.1445V342C37.1445 342.283 37.0487 342.521 36.857 342.713C36.6654 342.904 36.4279 343 36.1445 343C35.8612 343 35.6237 342.904 35.432 342.713C35.2404 342.521 35.1445 342.283 35.1445 342V337Z" fill="#2A3647"/>
</g>
<rect x="24.1445" y="362" width="24" height="24" rx="12" fill="#EEEEEE"/>
<mask id="mask9_75592_9950" style="mask-type:alpha" maskUnits="userSpaceOnUse" x="24" y="362" width="25" height="24">
<rect x="24.1445" y="362" width="24" height="24" fill="#D9D9D9"/>
</mask>
<g mask="url(#mask9_75592_9950)">
<path d="M35.1445 375H30.1445C29.8612 375 29.6237 374.904 29.432 374.713C29.2404 374.521 29.1445 374.283 29.1445 374C29.1445 373.717 29.2404 373.479 29.432 373.287C29.6237 373.096 29.8612 373 30.1445 373H35.1445V368C35.1445 367.717 35.2404 367.479 35.432 367.287C35.6237 367.096 35.8612 367 36.1445 367C36.4279 367 36.6654 367.096 36.857 367.287C37.0487 367.479 37.1445 367.717 37.1445 368V373H42.1445C42.4279 373 42.6654 373.096 42.857 373.287C43.0487 373.479 43.1445 373.717 43.1445 374C43.1445 374.283 43.0487 374.521 42.857 374.713C42.6654 374.904 42.4279 375 42.1445 375H37.1445V380C37.1445 380.283 37.0487 380.521 36.857 380.713C36.6654 380.904 36.4279 381 36.1445 381C35.8612 381 35.6237 380.904 35.432 380.713C35.2404 380.521 35.1445 380.283 35.1445 380V375Z" fill="#2A3647"/>
</g>
</svg>
