<svg width="64" height="197" viewBox="0 0 64 197" fill="none" xmlns="http://www.w3.org/2000/svg">
<rect x="0.5" y="1.46582" width="63" height="195" rx="4.5" stroke="#9747FF" stroke-dasharray="10 5"/>
<mask id="mask0_75597_14123" style="mask-type:alpha" maskUnits="userSpaceOnUse" x="20" y="20" width="24" height="25">
<rect x="20" y="20.9658" width="24" height="24" fill="#D9D9D9"/>
</mask>
<g mask="url(#mask0_75597_14123)">
<path d="M31.3005 35.2658L28.7005 32.6658C28.3838 32.3492 28.313 31.9867 28.488 31.5783C28.663 31.17 28.9755 30.9658 29.4255 30.9658H34.5755C35.0255 30.9658 35.338 31.17 35.513 31.5783C35.688 31.9867 35.6171 32.3492 35.3005 32.6658L32.7005 35.2658C32.6005 35.3658 32.4921 35.4408 32.3755 35.4908C32.2588 35.5408 32.1338 35.5658 32.0005 35.5658C31.8671 35.5658 31.7421 35.5408 31.6255 35.4908C31.5088 35.4408 31.4005 35.3658 31.3005 35.2658Z" fill="#2A3647"/>
</g>
<rect x="20" y="64.9658" width="24" height="24" rx="12" fill="#EEEEEE"/>
<mask id="mask1_75597_14123" style="mask-type:alpha" maskUnits="userSpaceOnUse" x="20" y="64" width="24" height="25">
<rect x="20" y="64.9658" width="24" height="24" fill="#D9D9D9"/>
</mask>
<g mask="url(#mask1_75597_14123)">
<path d="M31.3005 79.2658L28.7005 76.6658C28.3838 76.3492 28.313 75.9867 28.488 75.5783C28.663 75.17 28.9755 74.9658 29.4255 74.9658H34.5755C35.0255 74.9658 35.338 75.17 35.513 75.5783C35.688 75.9867 35.6171 76.3492 35.3005 76.6658L32.7005 79.2658C32.6005 79.3658 32.4921 79.4408 32.3755 79.4908C32.2588 79.5408 32.1338 79.5658 32.0005 79.5658C31.8671 79.5658 31.7421 79.5408 31.6255 79.4908C31.5088 79.4408 31.4005 79.3658 31.3005 79.2658Z" fill="#2A3647"/>
</g>
<mask id="mask2_75597_14123" style="mask-type:alpha" maskUnits="userSpaceOnUse" x="20" y="108" width="24" height="25">
<rect x="20" y="108.966" width="24" height="24" fill="#D9D9D9"/>
</mask>
<g mask="url(#mask2_75597_14123)">
<path d="M32.6995 119.266L35.2995 121.866C35.6162 122.183 35.687 122.545 35.512 122.953C35.337 123.362 35.0245 123.566 34.5745 123.566H29.4245C28.9745 123.566 28.662 123.362 28.487 122.953C28.312 122.545 28.3829 122.183 28.6995 121.866L31.2995 119.266C31.3995 119.166 31.5079 119.091 31.6245 119.041C31.7412 118.991 31.8662 118.966 31.9995 118.966C32.1329 118.966 32.2579 118.991 32.3745 119.041C32.4912 119.091 32.5995 119.166 32.6995 119.266Z" fill="#2A3647"/>
</g>
<rect x="20" y="152.966" width="24" height="24" rx="12" fill="#EEEEEE"/>
<mask id="mask3_75597_14123" style="mask-type:alpha" maskUnits="userSpaceOnUse" x="20" y="152" width="24" height="25">
<rect x="20" y="152.966" width="24" height="24" fill="#D9D9D9"/>
</mask>
<g mask="url(#mask3_75597_14123)">
<path d="M32.6995 163.266L35.2995 165.866C35.6162 166.183 35.687 166.545 35.512 166.953C35.337 167.362 35.0245 167.566 34.5745 167.566H29.4245C28.9745 167.566 28.662 167.362 28.487 166.953C28.312 166.545 28.3829 166.183 28.6995 165.866L31.2995 163.266C31.3995 163.166 31.5079 163.091 31.6245 163.041C31.7412 162.991 31.8662 162.966 31.9995 162.966C32.1329 162.966 32.2579 162.991 32.3745 163.041C32.4912 163.091 32.5995 163.166 32.6995 163.266Z" fill="#2A3647"/>
</g>
</svg>
