<svg width="72" height="229" viewBox="0 0 72 229" fill="none" xmlns="http://www.w3.org/2000/svg">
<rect x="0.5" y="1.46582" width="71" height="227" rx="4.5" stroke="#9747FF" stroke-dasharray="10 5"/>
<mask id="mask0_71720_5492" style="mask-type:alpha" maskUnits="userSpaceOnUse" x="24" y="24" width="24" height="25">
<rect x="24" y="24.9658" width="24" height="24" fill="#D9D9D9"/>
</mask>
<g mask="url(#mask0_71720_5492)">
<path d="M35.9998 38.3659L31.0998 43.2659C30.9165 43.4492 30.6831 43.5409 30.3998 43.5409C30.1165 43.5409 29.8831 43.4492 29.6998 43.2659C29.5165 43.0825 29.4248 42.8492 29.4248 42.5659C29.4248 42.2825 29.5165 42.0492 29.6998 41.8659L34.5998 36.9659L29.6998 32.0659C29.5165 31.8825 29.4248 31.6492 29.4248 31.3659C29.4248 31.0825 29.5165 30.8492 29.6998 30.6659C29.8831 30.4825 30.1165 30.3909 30.3998 30.3909C30.6831 30.3909 30.9165 30.4825 31.0998 30.6659L35.9998 35.5659L40.8998 30.6659C41.0831 30.4825 41.3165 30.3909 41.5998 30.3909C41.8831 30.3909 42.1165 30.4825 42.2998 30.6659C42.4831 30.8492 42.5748 31.0825 42.5748 31.3659C42.5748 31.6492 42.4831 31.8825 42.2998 32.0659L37.3998 36.9659L42.2998 41.8659C42.4831 42.0492 42.5748 42.2825 42.5748 42.5659C42.5748 42.8492 42.4831 43.0825 42.2998 43.2659C42.1165 43.4492 41.8831 43.5409 41.5998 43.5409C41.3165 43.5409 41.0831 43.4492 40.8998 43.2659L35.9998 38.3659Z" fill="#2A3647"/>
</g>
<rect x="20" y="72.9658" width="32" height="32" rx="16" fill="#EEEEEE"/>
<mask id="mask1_71720_5492" style="mask-type:alpha" maskUnits="userSpaceOnUse" x="24" y="76" width="24" height="25">
<rect x="24" y="76.9658" width="24" height="24" fill="#D9D9D9"/>
</mask>
<g mask="url(#mask1_71720_5492)">
<path d="M35.9998 90.3659L31.0998 95.2659C30.9165 95.4492 30.6831 95.5409 30.3998 95.5409C30.1165 95.5409 29.8831 95.4492 29.6998 95.2659C29.5165 95.0825 29.4248 94.8492 29.4248 94.5659C29.4248 94.2825 29.5165 94.0492 29.6998 93.8659L34.5998 88.9659L29.6998 84.0659C29.5165 83.8825 29.4248 83.6492 29.4248 83.3659C29.4248 83.0825 29.5165 82.8492 29.6998 82.6659C29.8831 82.4825 30.1165 82.3909 30.3998 82.3909C30.6831 82.3909 30.9165 82.4825 31.0998 82.6659L35.9998 87.5659L40.8998 82.6659C41.0831 82.4825 41.3165 82.3909 41.5998 82.3909C41.8831 82.3909 42.1165 82.4825 42.2998 82.6659C42.4831 82.8492 42.5748 83.0825 42.5748 83.3659C42.5748 83.6492 42.4831 83.8825 42.2998 84.0659L37.3998 88.9659L42.2998 93.8659C42.4831 94.0492 42.5748 94.2825 42.5748 94.5659C42.5748 94.8492 42.4831 95.0825 42.2998 95.2659C42.1165 95.4492 41.8831 95.5409 41.5998 95.5409C41.3165 95.5409 41.0831 95.4492 40.8998 95.2659L35.9998 90.3659Z" fill="#2A3647"/>
</g>
<mask id="mask2_71720_5492" style="mask-type:alpha" maskUnits="userSpaceOnUse" x="24" y="128" width="24" height="25">
<rect x="24" y="128.966" width="24" height="24" fill="#D9D9D9"/>
</mask>
<g mask="url(#mask2_71720_5492)">
<path d="M35.9998 142.366L31.0998 147.266C30.9165 147.449 30.6831 147.541 30.3998 147.541C30.1165 147.541 29.8831 147.449 29.6998 147.266C29.5165 147.083 29.4248 146.849 29.4248 146.566C29.4248 146.283 29.5165 146.049 29.6998 145.866L34.5998 140.966L29.6998 136.066C29.5165 135.883 29.4248 135.649 29.4248 135.366C29.4248 135.083 29.5165 134.849 29.6998 134.666C29.8831 134.483 30.1165 134.391 30.3998 134.391C30.6831 134.391 30.9165 134.483 31.0998 134.666L35.9998 139.566L40.8998 134.666C41.0831 134.483 41.3165 134.391 41.5998 134.391C41.8831 134.391 42.1165 134.483 42.2998 134.666C42.4831 134.849 42.5748 135.083 42.5748 135.366C42.5748 135.649 42.4831 135.883 42.2998 136.066L37.3998 140.966L42.2998 145.866C42.4831 146.049 42.5748 146.283 42.5748 146.566C42.5748 146.849 42.4831 147.083 42.2998 147.266C42.1165 147.449 41.8831 147.541 41.5998 147.541C41.3165 147.541 41.0831 147.449 40.8998 147.266L35.9998 142.366Z" fill="white"/>
</g>
<rect x="20" y="176.966" width="32" height="32" rx="16" fill="#29ABE2"/>
<mask id="mask3_71720_5492" style="mask-type:alpha" maskUnits="userSpaceOnUse" x="24" y="180" width="24" height="25">
<rect x="24" y="180.966" width="24" height="24" fill="#D9D9D9"/>
</mask>
<g mask="url(#mask3_71720_5492)">
<path d="M35.9998 194.366L31.0998 199.266C30.9165 199.449 30.6831 199.541 30.3998 199.541C30.1165 199.541 29.8831 199.449 29.6998 199.266C29.5165 199.083 29.4248 198.849 29.4248 198.566C29.4248 198.283 29.5165 198.049 29.6998 197.866L34.5998 192.966L29.6998 188.066C29.5165 187.883 29.4248 187.649 29.4248 187.366C29.4248 187.083 29.5165 186.849 29.6998 186.666C29.8831 186.483 30.1165 186.391 30.3998 186.391C30.6831 186.391 30.9165 186.483 31.0998 186.666L35.9998 191.566L40.8998 186.666C41.0831 186.483 41.3165 186.391 41.5998 186.391C41.8831 186.391 42.1165 186.483 42.2998 186.666C42.4831 186.849 42.5748 187.083 42.5748 187.366C42.5748 187.649 42.4831 187.883 42.2998 188.066L37.3998 192.966L42.2998 197.866C42.4831 198.049 42.5748 198.283 42.5748 198.566C42.5748 198.849 42.4831 199.083 42.2998 199.266C42.1165 199.449 41.8831 199.541 41.5998 199.541C41.3165 199.541 41.0831 199.449 40.8998 199.266L35.9998 194.366Z" fill="white"/>
</g>
</svg>
